<svg width="27" height="26" viewBox="0 0 27 26" fill="none" xmlns="http://www.w3.org/2000/svg">
<path d="M19.6691 21.2018L14.3572 18.3705C16.3314 16.8761 16.868 13.9392 16.868 12.2922V8.86419C16.868 6.59457 13.7337 4.06681 10.585 4.06681C7.43804 4.06681 4.22017 6.59457 4.22017 8.86419V12.2922C4.22017 13.7898 4.87826 16.8184 6.87276 18.3575L1.42416 21.201C1.42416 21.201 0 21.8114 0 22.572V24.629C0 25.3863 0.638679 26 1.42416 26H19.6691C20.4546 26 21.0933 25.3855 21.0933 24.629V22.572C21.0933 21.7652 19.6683 21.201 19.6683 21.201L19.6691 21.2018ZM19.4059 24.3781H1.68739V22.9268C1.80804 22.8415 1.97763 22.7433 2.11093 22.6849C2.15058 22.6678 2.19024 22.6491 2.2282 22.628L7.67765 19.7845C8.17458 19.5248 8.50362 19.0442 8.55425 18.5028C8.60487 17.9613 8.36948 17.4313 7.92907 17.0912C6.51419 15.9994 5.90757 13.5828 5.90757 12.293V8.865C5.90757 7.69853 8.1923 5.6911 10.585 5.6911C13.0225 5.6911 15.1806 7.67175 15.1806 8.865V12.293C15.1806 13.5642 14.7706 15.9921 13.3144 17.0944C12.8689 17.4321 12.6285 17.963 12.6757 18.506C12.723 19.0491 13.052 19.5345 13.5489 19.7959L18.8609 22.6272C18.9073 22.6516 18.9672 22.6784 19.0161 22.6995C19.141 22.7506 19.2937 22.835 19.4059 22.9097V24.3781ZM25.5742 17.1602L20.1829 14.3288C22.1572 12.8344 22.7731 9.89753 22.7731 8.25052V4.82254C22.7731 2.55292 19.5603 0 16.4116 0C14.3656 0 12.2741 1.07068 11.0567 2.4409C11.751 2.4823 12.5162 2.48311 13.1777 2.68604C14.067 2.01961 15.1908 1.62429 16.4116 1.62429C18.849 1.62429 21.0857 3.62929 21.0857 4.82335V8.25133C21.0857 9.52251 20.5963 11.9504 19.141 13.0528C18.6946 13.3904 18.455 13.9213 18.5023 14.4644C18.5495 15.0082 18.8777 15.4929 19.3755 15.7542L24.7667 18.5856C24.8131 18.6099 24.873 18.6367 24.922 18.6578C25.0468 18.709 25.1996 18.7934 25.3118 18.8681V20.3121H21.9058C22.4204 20.6855 22.5757 21.2197 22.7756 21.9356H25.5758C26.3613 21.9356 27 21.3211 27 20.5646V18.5328C26.9992 17.7251 25.5742 17.1602 25.5742 17.1602Z" fill="#1C3458"/>
</svg>
